<svg xmlns="http://www.w3.org/2000/svg" width="24" height="24" viewBox="0 0 24 24"><defs><linearGradient id="g" x1="0" y1="0" x2="1" y2="1"><stop offset="0" stop-color="#fbbf8a"/><stop offset="1" stop-color="#e8795a"/></linearGradient></defs><path fill="url(#g)" d="M12 2.5c.5 4.6 2.9 7 7.5 7.5v.9c-4.6.5-7 2.9-7.5 7.5h-.9c-.5-4.6-2.9-7-7.5-7.5V10c4.6-.5 7-2.9 7.5-7.5z"/><path fill="url(#g)" d="M18.6 15.2c.2 1.9 1.2 2.9 3.1 3.1v.4c-1.9.2-2.9 1.2-3.1 3.1h-.4c-.2-1.9-1.2-2.9-3.1-3.1v-.4c1.9-.2 2.9-1.2 3.1-3.1z"/></svg>
